<?xml version="1.0" encoding="iso-8859-1"?>
<!-- Generator: Adobe Illustrator 19.0.0, SVG Export Plug-In . SVG Version: 6.00 Build 0)  -->
<svg version="1.1" id="Capa_1" xmlns="http://www.w3.org/2000/svg" xmlns:xlink="http://www.w3.org/1999/xlink" x="0px" y="0px"
	 viewBox="0 0 512 512" style="enable-background:new 0 0 512 512;" xml:space="preserve">
<rect x="114" y="170.5" style="fill:#BF612C;" width="284" height="78.8"/>
<path style="fill:#F0EEEE;" d="M308.928,355.943H203.073c-45.69,0-82.862,37.172-82.862,82.862V504.5c0,4.143,3.358,7.5,7.5,7.5
	h256.578c4.143,0,7.5-3.357,7.5-7.5v-65.694C391.789,393.115,354.617,355.943,308.928,355.943z"/>
<path style="fill:#D9D4D4;" d="M308.928,355.943h-27.789c45.689,0,82.861,37.172,82.861,82.862V504.5c0,4.143-3.357,7.5-7.5,7.5
	h27.789c4.143,0,7.5-3.357,7.5-7.5v-65.694C391.789,393.115,354.617,355.943,308.928,355.943z"/>
<path style="fill:#FA8500;" d="M324.88,512h24.57V366.568c-7.543-4.249-15.808-7.353-24.57-9.069V512z"/>
<path style="fill:#CE6A06;" d="M324.88,368.475c9.716,6.065,18.091,14.08,24.57,23.501v-25.407
	c-0.881-0.496-1.774-0.974-2.675-1.438c-0.125-0.065-0.25-0.129-0.376-0.193c-0.886-0.451-1.779-0.89-2.683-1.31
	c-0.07-0.032-0.141-0.063-0.211-0.095c-2.828-1.305-5.741-2.454-8.729-3.438c-0.11-0.036-0.217-0.075-0.327-0.111
	c-0.858-0.279-1.726-0.537-2.597-0.789c-0.294-0.085-0.588-0.17-0.883-0.251c-0.836-0.231-1.678-0.451-2.525-0.657
	c-0.302-0.073-0.606-0.141-0.909-0.21c-0.881-0.203-1.763-0.402-2.654-0.576h-0.001L324.88,368.475L324.88,368.475z"/>
<path style="fill:#FFB700;" d="M310.892,458.33v16.674c0,2.115,1.715,3.83,3.83,3.83h44.891c2.115,0,3.83-1.715,3.83-3.83V458.33
	c0-2.115-1.715-3.83-3.83-3.83h-44.891C312.606,454.5,310.892,456.215,310.892,458.33z"/>
<path style="fill:#FA8500;" d="M162.55,512h24.57V357.5c-8.762,1.716-17.027,4.82-24.57,9.068L162.55,512L162.55,512z"/>
<path style="fill:#FFB700;" d="M148.558,458.33v16.674c0,2.115,1.715,3.83,3.83,3.83h44.891c2.115,0,3.83-1.715,3.83-3.83V458.33
	c0-2.115-1.715-3.83-3.83-3.83h-44.891C150.273,454.5,148.558,456.215,148.558,458.33z"/>
<path style="fill:#D9D4D4;" d="M362.971,419.707l-42.5-72.5c-1.347-2.296-3.809-3.707-6.471-3.707H198
	c-2.662,0-5.124,1.411-6.47,3.707l-42.5,72.5c-1.498,2.555-1.352,5.752,0.372,8.159c1.724,2.408,4.707,3.575,7.604,2.98
	l51.285-10.516l-1.603,5.608c-0.68,2.379-0.143,4.939,1.435,6.845l42.1,50.833c1.425,1.72,3.543,2.716,5.776,2.716
	s4.352-0.996,5.776-2.716l42.101-50.833c1.578-1.905,2.114-4.467,1.434-6.845l-1.602-5.608l51.284,10.515
	c2.899,0.597,5.881-0.571,7.604-2.98C364.322,425.459,364.468,422.262,362.971,419.707z"/>
<g>
	<path style="fill:#FA9E3E;" d="M298.1,267.73v95.35l-37.598,103.375c-1.529,4.204-7.475,4.204-9.004,0L213.9,363.08v-95.35
		L298.1,267.73L298.1,267.73z"/>
	<path style="fill:#FA9E3E;" d="M125.839,220.99h49.369v56.61h-49.369c-15.632,0-28.305-12.673-28.305-28.305
		S110.207,220.99,125.839,220.99z"/>
	<path style="fill:#FA9E3E;" d="M386.161,220.99h-49.369v56.61h49.369c15.632,0,28.305-12.673,28.305-28.305
		S401.793,220.99,386.161,220.99z"/>
</g>
<path style="fill:#FFB56B;" d="M256,342.79L256,342.79c-61.919,0-112.115-50.195-112.115-112.115V117.281h224.229v113.394
	C368.115,292.595,317.919,342.79,256,342.79z"/>
<path style="fill:#EF9245;" d="M344.781,117.281v125.062c0,53.578-41.949,97.354-94.795,100.286
	c1.992,0.105,3.996,0.161,6.014,0.161l0,0c61.919,0,112.115-50.195,112.115-112.115V117.281H344.781z"/>
<g>
	
		<line style="fill:none;stroke:#000000;stroke-width:15;stroke-linecap:round;stroke-linejoin:round;stroke-miterlimit:10;" x1="310.32" y1="223.46" x2="310.32" y2="225.46"/>
	
		<line style="fill:none;stroke:#000000;stroke-width:15;stroke-linecap:round;stroke-linejoin:round;stroke-miterlimit:10;" x1="201.68" y1="223.46" x2="201.68" y2="225.46"/>
</g>
<g>
	<path style="fill:#5880A2;" d="M323.647,256.746h-17.792c-14.76,0-26.725-11.965-26.725-26.725v-19.614
		c22.905-9.654,46.368-9.23,70.32,0v20.536C349.45,245.194,337.898,256.746,323.647,256.746z"/>
	<path style="fill:#5880A2;" d="M207.067,256.746h-17.792c-14.76,0-26.725-11.965-26.725-26.725v-19.614
		c22.904-9.654,46.368-9.23,70.319,0v20.536C232.87,245.194,221.317,256.746,207.067,256.746z"/>
</g>
<path style="fill:#484655;" d="M397.338,157.45L372.344,39.119C367.556,16.452,347.267,0,324.1,0h-6.098
	c-11.759,0-23.152,4.213-32.083,11.864l-4.48,3.839c-14.74,12.629-36.138,12.628-50.877,0l-4.481-3.839
	C217.15,4.214,205.757,0,193.998,0c-23.167,0-43.457,16.452-48.244,39.119L120.76,157.45c-0.467,2.212,0.088,4.518,1.512,6.273
	c1.424,1.756,3.564,2.776,5.826,2.776H390c2.261,0,4.401-1.02,5.825-2.776C397.25,161.968,397.806,159.662,397.338,157.45z"/>
<g>
	<path style="fill:#35343F;" d="M397.338,157.45L372.344,39.119C367.556,16.452,347.267,0,324.1,0h-6.098
		c-3.96,0-7.876,0.489-11.673,1.415c18.061,4.431,32.664,18.93,36.629,37.704l24.994,118.331c0.468,2.212-0.088,4.518-1.513,6.273
		c-1.424,1.756-3.564,2.776-5.825,2.776H390c2.261,0,4.401-1.02,5.825-2.776C397.25,161.968,397.806,159.662,397.338,157.45z"/>
	<path style="fill:#35343F;" d="M352.147,203.409c-26.25-10.116-51.795-10.086-75.93,0.087c-2.779,1.172-4.587,3.895-4.587,6.911
		v3.083h-31.26v-3.083c0-3.102-1.909-5.883-4.803-6.998c-26.247-10.116-51.794-10.086-75.93,0.087
		c-2.78,1.172-4.587,3.895-4.587,6.911v19.613c0,18.872,15.354,34.226,34.226,34.226h17.792c18.363,0,33.303-14.939,33.303-33.303
		v-2.453h31.261v1.53c0,18.872,15.353,34.226,34.225,34.226h17.792c18.363,0,33.303-14.939,33.303-33.303v-20.536
		C356.95,207.306,355.041,204.524,352.147,203.409z M225.37,230.943c0,10.092-8.21,18.303-18.303,18.303h-17.792
		c-10.601,0-19.226-8.625-19.226-19.226v-14.489c17.797-6.373,35.984-6.324,55.32,0.145v15.267H225.37z M341.95,230.943
		c0,10.092-8.211,18.303-18.303,18.303h-17.792c-10.601,0-19.225-8.625-19.225-19.226v-14.489
		c17.796-6.373,35.984-6.324,55.319,0.145v15.267H341.95z"/>
</g>
<path style="fill:#3D5868;" d="M397.495,159c0-0.516-0.048-1.036-0.157-1.55l-11.758-55.664H132.518L120.76,157.45
	c-0.109,0.514-0.156,1.033-0.156,1.55H397.495z"/>
<path style="fill:#2A434F;" d="M356.195,101.786l11.758,55.664c0.109,0.514,0.157,1.033,0.157,1.55h29.385c0-0.003,0-0.005,0-0.008
	c0-0.254-0.012-0.509-0.037-0.764c-0.027-0.26-0.065-0.519-0.119-0.778l-11.758-55.664
	C385.581,101.786,356.195,101.786,356.195,101.786z"/>
<path style="fill:#595866;" d="M427.5,142.472h-343c-4.142,0-7.5,3.357-7.5,7.5v3.293c0,22.17,18.037,40.207,40.207,40.207h277.586
	c22.17,0,40.207-18.037,40.207-40.207v-3.293C435,145.829,431.643,142.472,427.5,142.472z"/>
<path style="fill:#35343F;" d="M427.5,142.472h-36c4.143,0,7.5,3.357,7.5,7.5v3.293c0,22.17-18.037,40.207-40.207,40.207h36
	c22.17,0,40.207-18.037,40.207-40.207v-3.293C435,145.829,431.643,142.472,427.5,142.472z"/>
<path style="fill:#19303F;" d="M279.127,291.486c-0.992,0-2-0.198-2.969-0.616c-3.373-1.456-10.439-3.013-20.158-3.013
	c-9.718,0-16.785,1.556-20.157,3.013c-3.804,1.641-8.217-0.109-9.858-3.912c-1.642-3.803,0.109-8.217,3.912-9.859
	c6.242-2.695,15.756-4.241,26.104-4.241c10.347,0,19.861,1.546,26.103,4.241c3.803,1.643,5.555,6.056,3.913,9.858
	C284.793,289.791,282.029,291.486,279.127,291.486z"/>
<g>
</g>
<g>
</g>
<g>
</g>
<g>
</g>
<g>
</g>
<g>
</g>
<g>
</g>
<g>
</g>
<g>
</g>
<g>
</g>
<g>
</g>
<g>
</g>
<g>
</g>
<g>
</g>
<g>
</g>
</svg>
